<svg id="Layer_1" data-name="Layer 1" xmlns="http://www.w3.org/2000/svg" xmlns:xlink="http://www.w3.org/1999/xlink" viewBox="0 0 512 512"><defs><style>.cls-1{fill:none;clip-rule:evenodd;}.cls-2{clip-path:url(#clip-path);}.cls-3{fill:#3e82f1;}.cls-4{clip-path:url(#clip-path-2);}.cls-5{fill:#32a753;}.cls-6{clip-path:url(#clip-path-3);}.cls-7{fill:#f9bb00;}.cls-8{clip-path:url(#clip-path-4);}.cls-9{fill:#e74133;}</style><clipPath id="clip-path"><path class="cls-1" d="M430.45,260.05a204.06,204.06,0,0,0-3.24-36.42H259.56v68.86h95.8a81.88,81.88,0,0,1-35.52,53.73v44.66h57.53c33.66-31,53.08-76.62,53.08-130.83Zm0,0"/></clipPath><clipPath id="clip-path-2"><path class="cls-1" d="M259.56,434c48.06,0,88.36-15.94,117.81-43.13l-57.53-44.66c-15.94,10.68-36.33,17-60.28,17-46.36,0-85.61-31.31-99.61-73.39H100.48v46.12A177.94,177.94,0,0,0,259.56,434Zm0,0"/></clipPath><clipPath id="clip-path-3"><path class="cls-1" d="M160,289.82a105.28,105.28,0,0,1,0-67.64V176.06H100.48a178.26,178.26,0,0,0,0,159.88L160,289.82Zm0,0"/></clipPath><clipPath id="clip-path-4"><path class="cls-1" d="M259.56,148.79c26.14,0,49.6,9,68.05,26.62l51.06-51.06C347.84,95.63,307.54,78,259.56,78a177.94,177.94,0,0,0-159.08,98.07L160,222.18c14-42.08,53.25-73.39,99.61-73.39Zm0,0"/></clipPath></defs><title>Artboard 1</title><g class="cls-2"><rect class="cls-3" x="160.67" y="124.74" width="368.68" height="365.04"/></g><g class="cls-4"><rect class="cls-5" x="1.59" y="190.93" width="474.68" height="341.98"/></g><g class="cls-6"><rect class="cls-7" x="-17.35" y="77.16" width="276.2" height="357.68"/></g><g class="cls-8"><rect class="cls-9" x="1.59" y="-20.91" width="475.97" height="341.98"/></g></svg>