<svg id="Capa_1" enable-background="new 0 0 512 512" height="512" viewBox="0 0 512 512" width="512" xmlns="http://www.w3.org/2000/svg"><g><path d="m376.227 7.5h-301.533c-6.569 0-11.893 5.325-11.893 11.893v473.213c0 6.569 5.325 11.893 11.893 11.893h362.611c6.569 0 11.893-5.325 11.893-11.893v-412.134z" fill="#f4fbff"/><path d="m376.227 7.5h-19.496l72.972 72.972v412.135c0 6.569-5.325 11.893-11.893 11.893h19.496c6.568 0 11.893-5.325 11.893-11.893v-412.135z" fill="#e4f6ff"/><path d="m376.227 7.5 72.972 72.972h-67.886c-2.809 0-5.086-2.277-5.086-5.086z" fill="#ddeafb"/><path d="m429.703 80.471h19.496l-72.972-72.971v19.496z" fill="#cbe2ff"/><path d="m207.213 195.005h-97.723c-5.245 0-9.497-4.252-9.497-9.497v-75.883c0-29.01 23.517-52.527 52.527-52.527h11.664c29.01 0 52.527 23.517 52.527 52.527v75.883c-.001 5.245-4.253 9.497-9.498 9.497z" fill="#3b66c1"/><path d="m164.183 57.099h-11.664c-.517 0-1.029.024-1.543.039 28.294.818 50.984 23.995 50.984 52.488v75.883c0 5.245-4.252 9.497-9.497 9.497h14.749c5.245 0 9.497-4.252 9.497-9.497v-75.883c.001-29.01-23.516-52.527-52.526-52.527z" fill="#30579d"/><path d="m175.001 174.059h-6.839-19.621-6.839c-13.609 0-24.642 11.033-24.642 24.642v30.229c0 1.733 1.405 3.138 3.138 3.138h76.306c1.733 0 3.138-1.405 3.138-3.138v-30.229c.001-13.609-11.032-24.642-24.641-24.642z" fill="#90d8f9"/><path d="m175.001 174.059h-15.299c13.609 0 24.642 11.033 24.642 24.642v30.228c0 1.733-1.405 3.138-3.138 3.138h15.299c1.733 0 3.138-1.405 3.138-3.138v-30.228c0-13.609-11.033-24.642-24.642-24.642z" fill="#75cef9"/><path d="m158.351 179.879c-23.31 0-42.206-18.896-42.206-42.206v-25.527c0-.613.498-1.108 1.111-1.109 19.534-.036 36.798-2.834 52.197-12.785.46-.297 1.075-.202 1.405.235 6.954 9.232 16.439 11.787 28.592 12.49.62.036 1.106.545 1.106 1.166v25.53c.001 23.31-18.895 42.206-42.205 42.206z" fill="#ffddce"/><path d="m199.451 110.978c-4.998-.289-9.538-.903-13.643-2.154v28.85c0 20.792-15.04 38.061-34.831 41.55 2.396.423 4.857.655 7.375.655 23.31 0 42.206-18.896 42.206-42.206v-25.53c-.001-.62-.487-1.129-1.107-1.165z" fill="#ffcbbe"/><g><path d="m157.443 283.791h-44.853c-4.143 0-7.5 3.357-7.5 7.5s3.357 7.5 7.5 7.5h44.853c4.143 0 7.5-3.357 7.5-7.5s-3.358-7.5-7.5-7.5z"/><path d="m399.41 283.791h-204.216c-4.143 0-7.5 3.357-7.5 7.5s3.357 7.5 7.5 7.5h204.216c4.143 0 7.5-3.357 7.5-7.5s-3.358-7.5-7.5-7.5z"/><path d="m157.443 319.754h-44.853c-4.143 0-7.5 3.357-7.5 7.5s3.357 7.5 7.5 7.5h44.853c4.143 0 7.5-3.357 7.5-7.5s-3.358-7.5-7.5-7.5z"/><path d="m399.41 319.754h-204.216c-4.143 0-7.5 3.357-7.5 7.5s3.357 7.5 7.5 7.5h204.216c4.143 0 7.5-3.357 7.5-7.5s-3.358-7.5-7.5-7.5z"/><path d="m157.443 388.528h-44.853c-4.143 0-7.5 3.357-7.5 7.5s3.357 7.5 7.5 7.5h44.853c4.143 0 7.5-3.357 7.5-7.5s-3.358-7.5-7.5-7.5z"/><path d="m399.41 388.528h-204.216c-4.143 0-7.5 3.357-7.5 7.5s3.357 7.5 7.5 7.5h204.216c4.143 0 7.5-3.357 7.5-7.5s-3.358-7.5-7.5-7.5z"/><path d="m157.443 424.491h-44.853c-4.143 0-7.5 3.357-7.5 7.5s3.357 7.5 7.5 7.5h44.853c4.143 0 7.5-3.357 7.5-7.5s-3.358-7.5-7.5-7.5z"/><path d="m399.41 424.491h-204.216c-4.143 0-7.5 3.357-7.5 7.5s3.357 7.5 7.5 7.5h204.216c4.143 0 7.5-3.357 7.5-7.5s-3.358-7.5-7.5-7.5z"/><path d="m196.504 239.567c5.866 0 10.639-4.772 10.639-10.638v-26.425h.07c9.372 0 16.997-7.625 16.997-16.997v-75.882c0-33.1-26.928-60.027-60.027-60.027h-11.664c-33.099 0-60.026 26.928-60.026 60.027v75.882c0 9.372 7.625 16.997 16.997 16.997h.07v26.425c0 5.865 4.772 10.638 10.639 10.638h17.519c4.143 0 7.5-3.357 7.5-7.5s-3.357-7.5-7.5-7.5h-13.158v-25.866c0-7.618 4.945-14.157 12.032-16.349 6.576 3.216 13.959 5.026 21.759 5.026s15.183-1.811 21.76-5.026c7.087 2.192 12.032 8.731 12.032 16.349v25.866h-23.906c-4.143 0-7.5 3.357-7.5 7.5s3.357 7.5 7.5 7.5zm-89.011-54.059v-75.882c0-24.828 20.199-45.027 45.026-45.027h11.664c24.828 0 45.027 20.199 45.027 45.027v75.882c0 1.102-.896 1.997-1.997 1.997h-2.062c-2.23-6.04-6.227-11.243-11.426-14.956 8.854-8.98 14.332-21.298 14.332-34.875v-25.53c0-4.585-3.589-8.387-8.17-8.653h-.003c-12.095-.7-18.337-3.278-23.032-9.511-2.681-3.563-7.722-4.453-11.468-2.025-12.506 8.081-26.902 11.545-48.15 11.583-4.735.015-8.588 3.877-8.588 8.609v25.527c0 13.577 5.477 25.895 14.332 34.875-5.199 3.713-9.196 8.917-11.426 14.956h-2.062c-1.102 0-1.997-.896-1.997-1.997zm16.153-47.834v-19.255c18.363-.665 32.667-4.153 45.106-11.013 7.192 6.949 15.903 9.503 24.305 10.537v19.73c0 19.137-15.569 34.705-34.706 34.705s-34.705-15.567-34.705-34.704z"/><path d="m264.532 103.963h73.408c4.143 0 7.5-3.357 7.5-7.5s-3.357-7.5-7.5-7.5h-73.408c-4.143 0-7.5 3.357-7.5 7.5s3.357 7.5 7.5 7.5z"/><path d="m264.532 143.552h121.808c4.143 0 7.5-3.357 7.5-7.5s-3.357-7.5-7.5-7.5h-121.808c-4.143 0-7.5 3.357-7.5 7.5s3.357 7.5 7.5 7.5z"/><path d="m264.532 183.141h121.808c4.143 0 7.5-3.357 7.5-7.5s-3.357-7.5-7.5-7.5h-121.808c-4.143 0-7.5 3.357-7.5 7.5s3.357 7.5 7.5 7.5z"/><path d="m264.532 222.729h121.808c4.143 0 7.5-3.357 7.5-7.5s-3.357-7.5-7.5-7.5h-121.808c-4.143 0-7.5 3.357-7.5 7.5s3.357 7.5 7.5 7.5z"/><path d="m449.199 424.498c4.143 0 7.5-3.357 7.5-7.5v-336.526c0-1.989-.79-3.896-2.196-5.304l-72.972-72.972c-1.407-1.406-3.315-2.196-5.304-2.196h-301.532c-10.694 0-19.394 8.699-19.394 19.393v473.214c0 10.693 8.7 19.394 19.394 19.394h362.61c10.693 0 19.394-8.7 19.394-19.394v-45.621c0-4.143-3.357-7.5-7.5-7.5s-7.5 3.357-7.5 7.5v45.621c0 2.423-1.971 4.394-4.394 4.394h-362.61c-2.423 0-4.394-1.971-4.394-4.394v-473.214c0-2.422 1.971-4.393 4.394-4.393h294.032v60.386c0 6.939 5.646 12.586 12.586 12.586h60.386v329.026c0 4.143 3.357 7.5 7.5 7.5zm-65.472-398.892 47.365 47.365h-47.365z"/></g></g></svg>